inDegrees=yes
name=ik_S49_A06_T02
DataType=double
version=3
OpenSimVersion=4.3-2021-08-27-4bc7ad9
endheader
time	pelvis_tilt	pelvis_list	pelvis_rotation	pelvis_tx	pelvis_ty	pelvis_tz	hip_flexion_r	hip_adduction_r	hip_rotation_r	knee_angle_r	knee_angle_r_beta	ankle_angle_r	subtalar_angle_r	mtp_angle_r	hip_flexion_l	hip_adduction_l	hip_rotation_l	knee_angle_l	knee_angle_l_beta	ankle_angle_l	subtalar_angle_l	mtp_angle_l	lumbar_extension	lumbar_bending	lumbar_rotation	arm_flex_r	arm_add_r	arm_rot_r	elbow_flex_r	pro_sup_r	wrist_flex_r	wrist_dev_r	arm_flex_l	arm_add_l	arm_rot_l	elbow_flex_l	pro_sup_l	wrist_flex_l	wrist_dev_l
22.65999999999961	-8.577688708704837	-2.983372032025633	26.38003295010612	0	0.9399999999999999	0	43.56508740870017	-10.33137954645217	-10.35205264094828	53.9311581281302	0.9412762787495739	0	0	0	43.56508740870017	-10.33137954645217	-10.35205264094828	53.9311581281302	0.9412762787495739	0	0	0	-8.626518781813557	-0.3680909831685101	-1.39373066783794	37.12959626115625	-1.762445831341417	4.934743474142594	38.18532416507507	116.7875516763538	0	0	71.11285321769452	-27.71698115687513	-0.7124759570483853	23.51309832610951	98.23674157151001	0	0
22.67999999999961	-8.575634802819568	-2.97808873907317	26.35713832453584	0	0.9399999999999999	0	43.56554882911679	-10.33100794986801	-10.35179930180744	53.93138855931134	0.941280300532384	0	0	0	43.56554882911679	-10.33100794986801	-10.35179930180744	53.93138855931134	0.941280300532384	0	0	0	-8.62110294030952	-0.3690044953388203	-1.364064150198231	37.14577132106267	-1.752430421518119	4.689705108419502	38.18245412209506	116.9640441644606	0	0	71.10292399510004	-27.72338982195568	-0.7255790537413449	23.70076654338141	98.1301389211263	0	0
22.6999999999996	-8.570191861779644	-2.965438824736208	26.41083158423669	0	0.9399999999999999	0	43.5664103149222	-10.33031958108972	-10.35132867103932	53.93182158016564	0.9412878581720213	0	0	0	43.5664103149222	-10.33031958108972	-10.35132867103932	53.93182158016564	0.9412878581720213	0	0	0	-8.614044749672701	-0.347067369995614	-1.432964785892035	37.15398827301948	-1.71925387836458	4.619086721301695	38.17893401581402	117.0229711039613	0	0	70.80387768809625	-27.88217523769173	-1.027085819642681	24.32704680754516	98.08694573974901	0	0
22.7199999999996	-8.569716044170628	-2.980731014482934	26.40924870373492	0	0.9399999999999999	0	43.56673210176398	-10.33006849060332	-10.35115559027492	53.93198680223553	0.9412907418411378	0	0	0	43.56673210176398	-10.33006849060332	-10.35115559027492	53.93198680223553	0.9412907418411378	0	0	0	-8.621190571341714	-0.3586283398825595	-1.446441785656363	37.16014994899316	-1.649521025580341	4.656548429789397	38.21417308832856	116.9503422230193	0	0	70.88334197253606	-27.94193838709594	-0.9935714228334754	24.8129405229178	98.18647306332178	0	0
22.7399999999996	-8.55940681678838	-2.974951742324679	26.54348936742548	0	0.9399999999999999	0	43.56743637720323	-10.32950325229216	-10.35076959150276	53.93233876033512	0.9412968846688048	0	0	0	43.56743637720323	-10.32950325229216	-10.35076959150276	53.93233876033512	0.9412968846688048	0	0	0	-8.61593070691556	-0.3331700142675104	-1.589564020138941	37.12159918302832	-1.619421069991152	4.755772462599928	38.24774106056356	116.8305891288315	0	0	70.12977728381885	-28.27608041978234	-1.919166732863462	26.39417132400253	99.08871954090871	0	0
22.7599999999996	-8.551346778626707	-2.986949856717615	26.71054763528763	0	0.9399999999999999	0	43.56793941327944	-10.32910770098181	-10.35049753264737	53.93259471845875	0.9413013519808094	0	0	0	43.56793941327944	-10.32910770098181	-10.35049753264737	53.93259471845875	0.9413013519808094	0	0	0	-8.620999920040811	-0.3179716055531875	-1.763268999498903	37.11340637279269	-1.574560467725777	4.782220480528609	38.29471470979141	116.7714295960433	0	0	69.64645935280922	-28.52861321214927	-2.38062250261271	27.95664053321786	99.96271625174167	0	0
22.7799999999996	-8.539859957029313	-2.954434751643844	26.93232677699332	0	0.9399999999999999	0	43.56865756623539	-10.32854530398247	-10.35011009727138	53.93296113115404	0.9413077470887633	0	0	0	43.56865756623539	-10.32854530398247	-10.35011009727138	53.93296113115404	0.9413077470887633	0	0	0	-8.607962467243588	-0.2490208722796919	-2.015211776491266	37.0816430599743	-1.585337949293736	4.820499438068096	38.29447551284109	116.7627067540466	0	0	68.82413302227476	-28.76530056001628	-3.081844900897274	30.03949863844107	100.6982484481932	0	0
22.7999999999996	-8.536864899573636	-2.960456288133998	27.14060722953512	0	0.9399999999999999	0	43.56943847198549	-10.32793272280583	-10.34968826367616	53.93335861097564	0.9413146844203604	0	0	0	43.56943847198549	-10.32793272280583	-10.34968826367616	53.93335861097564	0.9413146844203604	0	0	0	-8.619262430643564	-0.2122015395974765	-2.254854880629097	37.0746799039912	-1.532512638473125	4.809431210868219	38.35312845886711	116.7418675943286	0	0	68.09821845982543	-29.06491069968565	-3.641888990962927	32.19193334132322	101.1418245875561	0	0
22.8199999999996	-8.532657694724147	-2.963401587986277	27.20991223427523	0	0.9399999999999999	0	43.57000140057552	-10.32748380923531	-10.34938081476067	53.93364060883987	0.941319606211575	0	0	0	43.57000140057552	-10.32748380923531	-10.34938081476067	53.93364060883987	0.941319606211575	0	0	0	-8.620345157079928	-0.2023025013651675	-2.330190437286016	37.03639282403105	-1.52187734547297	4.774336541285544	38.40765521868337	116.7511916084692	0	0	67.29614806073394	-29.33069458202719	-4.065911201293736	32.93054501237433	101.0764398396933	0	0
22.8399999999996	-8.544435466064208	-2.979325364167676	27.30259280426528	0	0.9399999999999999	0	43.57049998506911	-10.32709638013669	-10.34911309802628	53.93389629416918	0.9413240687624204	0	0	0	43.57049998506911	-10.32709638013669	-10.34911309802628	53.93389629416918	0.9413240687624204	0	0	0	-8.639623402995181	-0.2054798475243346	-2.379085431030626	37.03348618278579	-1.526497279280405	4.725564273156987	38.45253046563721	116.7216108375501	0	0	66.43754380571048	-29.48463604778803	-4.240185940636638	35.31454773483321	101.1273712830106	0	0
22.8599999999996	-8.539182451830449	-2.965657373063939	27.34963853543088	0	0.9399999999999999	0	43.57113461005542	-10.32659415556651	-10.34876814167271	53.93421602943381	0.941329649195523	0	0	0	43.57113461005542	-10.32659415556651	-10.34876814167271	53.93421602943381	0.941329649195523	0	0	0	-8.629815532202576	-0.1886893379061812	-2.427585567308141	37.01960550557681	-1.539629997059238	4.739404079416973	38.46642626442129	116.7064834715133	0	0	64.09393881133651	-29.63596305631441	-4.875702244343325	39.00661235093536	100.8324327102784	0	0
22.8799999999996	-8.542198387932107	-2.948498695779258	27.16246987532801	0	0.9399999999999999	0	43.57280318728647	-10.32530273977064	-10.34787341625769	53.93506953042225	0.9413445455979402	0	0	0	43.57280318728647	-10.32530273977064	-10.34787341625769	53.93506953042225	0.9413445455979402	0	0	0	-8.612514375822302	-0.1992681873836345	-2.240274387424746	36.95054584473488	-1.570140393770955	4.845187948806958	38.55123888905359	116.612731628719	0	0	62.80471615524859	-29.656413608181	-5.235135868735333	43.29817734277048	100.4259707831532	0	0
